<svg width="165" height="27" viewBox="0 0 165 27" fill="none" xmlns="http://www.w3.org/2000/svg">
<path d="M46.6444 26.729C46.6444 14.0758 36.387 3.81843 23.7338 3.81843C11.0807 3.81843 0.823242 14.0758 0.823242 26.729H46.6444Z" fill="white"/>
<path d="M4.55287 13.4681C2.56166 16.5761 2.11917 18.2337 1.45543 20.5129C1.27844 17.3635 3.37289 12.9156 4.55287 11.1889L4.55287 13.4681Z" fill="white"/>
<path d="M43.0923 13.4681C45.0835 16.5761 45.526 18.2337 46.1898 20.5129C46.3668 17.3635 44.2723 12.9156 43.0923 11.1889V13.4681Z" fill="white"/>
<path d="M11.3905 6.48121C9.6145 7.55561 8.9485 8.15971 8.28249 8.70246V6.14604C9.7033 4.85728 10.9465 3.99812 11.3905 3.72963V6.48121Z" fill="white"/>
<path d="M36.2547 6.48121C37.6755 7.55561 38.2083 8.15971 38.7411 8.70246V6.14604C37.6045 4.85728 36.6099 3.99812 36.2547 3.72963V6.48121Z" fill="white"/>
<path d="M18.2282 3.36975C17.0627 3.56605 16.0914 3.95864 15.1201 4.35123V1.79938C16.2079 1.17123 17.6454 0.752468 18.2282 0.621604V3.36975Z" fill="white"/>
<path d="M28.7954 3.36975C30.194 3.56605 31.3596 3.95864 32.5251 4.35123V1.79938C31.2197 1.17123 29.4947 0.752468 28.7954 0.621604V3.36975Z" fill="white"/>
<path d="M25.6874 2.48642H21.9578V0H25.6874V2.48642Z" fill="white"/>
<path d="M68.5458 23.6039C66.8548 23.6039 65.3847 23.2764 64.1355 22.6213C62.9016 21.951 61.9494 20.9989 61.2791 19.7649C60.6241 18.531 60.2965 17.0761 60.2965 15.4004C60.2965 13.7246 60.6241 12.2698 61.2791 11.0358C61.9494 9.7866 62.9016 8.82686 64.1355 8.15656C65.3847 7.48626 66.8472 7.15111 68.5229 7.15111C69.894 7.15111 71.166 7.38724 72.3391 7.85949C73.5121 8.33175 74.3957 8.96396 74.9898 9.75613C75.1422 9.96941 75.2183 10.1979 75.2183 10.4417C75.2183 10.792 75.0507 11.0891 74.7156 11.3329C74.5175 11.4547 74.3119 11.5157 74.0986 11.5157C73.9006 11.5157 73.7025 11.47 73.5045 11.3786C73.3217 11.2872 73.1617 11.1653 73.0246 11.0129C72.5219 10.4188 71.8973 9.97703 71.1508 9.68758C70.4196 9.3829 69.5436 9.23056 68.5229 9.23056C66.771 9.23056 65.3923 9.77898 64.3869 10.8758C63.3967 11.9575 62.9016 13.4656 62.9016 15.4004C62.9016 17.3198 63.3967 18.8204 64.3869 19.902C65.3923 20.9836 66.7786 21.5245 68.5458 21.5245C69.993 21.5245 71.1356 21.2274 71.9735 20.6333C72.8266 20.0391 73.2531 19.2317 73.2531 18.211V17.6169C73.2531 17.2665 73.1769 17.0228 73.0246 16.8857C72.8875 16.7486 72.6209 16.68 72.2248 16.68H69.0714C68.6905 16.68 68.3935 16.5962 68.1802 16.4287C67.9821 16.2458 67.8831 15.9945 67.8831 15.6746C67.8831 15.3394 67.9821 15.0804 68.1802 14.8976C68.3935 14.7148 68.6905 14.6234 69.0714 14.6234H73.2988C74.1672 14.6234 74.807 14.8138 75.2183 15.1947C75.6449 15.5755 75.8581 16.1621 75.8581 16.9542V17.8454C75.8581 18.9575 75.5458 19.9477 74.9212 20.8161C74.2967 21.6844 73.4283 22.3699 72.3162 22.8727C71.2041 23.3602 69.9473 23.6039 68.5458 23.6039Z" fill="white"/>
<path d="M86.6543 23.6039C84.9633 23.6039 83.478 23.2611 82.1983 22.5756C80.9339 21.8901 79.9589 20.9227 79.2734 19.6735C78.5879 18.4243 78.2451 16.9923 78.2451 15.3775C78.2451 13.7627 78.5879 12.3307 79.2734 11.0815C79.9589 9.8323 80.9339 8.86494 82.1983 8.17941C83.478 7.49388 84.9633 7.15111 86.6543 7.15111C88.3453 7.15111 89.823 7.49388 91.0874 8.17941C92.3671 8.86494 93.3497 9.8323 94.0352 11.0815C94.7207 12.3307 95.0635 13.7627 95.0635 15.3775C95.0635 16.9923 94.7207 18.4243 94.0352 19.6735C93.3497 20.9227 92.3671 21.8901 91.0874 22.5756C89.823 23.2611 88.3453 23.6039 86.6543 23.6039ZM86.6543 21.5245C88.4367 21.5245 89.8458 20.976 90.8817 19.8792C91.9177 18.7823 92.4356 17.2818 92.4356 15.3775C92.4356 13.458 91.9024 11.9575 90.836 10.8758C89.7849 9.77898 88.3453 9.23056 86.5172 9.23056C85.3594 9.23056 84.354 9.48192 83.5008 9.98464C82.6477 10.4874 81.9927 11.2034 81.5356 12.1326C81.0786 13.0619 80.8501 14.1435 80.8501 15.3775C80.8501 16.6419 81.0862 17.7388 81.5585 18.6681C82.0308 19.5821 82.7011 20.2905 83.5694 20.7932C84.4377 21.2807 85.466 21.5245 86.6543 21.5245Z" fill="white"/>
<path d="M101.191 23.3754C100.125 23.3754 99.2872 23.0936 98.6778 22.5299C98.0837 21.951 97.7866 21.1512 97.7866 20.1305V8.36222C97.7866 7.98136 97.9009 7.6843 98.1294 7.47102C98.3579 7.25775 98.6702 7.15111 99.0663 7.15111C99.4624 7.15111 99.7747 7.26536 100.003 7.49387C100.247 7.70715 100.369 7.9966 100.369 8.36222V20.1534C100.369 20.519 100.46 20.8084 100.643 21.0217C100.841 21.235 101.108 21.3416 101.443 21.3416H108.847C109.669 21.3416 110.08 21.6844 110.08 22.3699C110.08 22.6899 109.974 22.9412 109.761 23.124C109.547 23.2916 109.243 23.3754 108.847 23.3754H101.191Z" fill="white"/>
<path d="M132.33 23.581C131.934 23.581 131.621 23.4744 131.393 23.2611C131.164 23.0479 131.05 22.7508 131.05 22.3699V14.0521C131.05 11.8889 131.667 10.1979 132.901 8.9792C134.135 7.76047 135.849 7.15111 138.043 7.15111C139.475 7.15111 140.716 7.43294 141.767 7.9966C142.819 8.54502 143.618 9.3372 144.167 10.3731C144.73 11.409 145.012 12.6354 145.012 14.0521V22.3699C145.012 22.7508 144.898 23.0479 144.669 23.2611C144.441 23.4744 144.129 23.581 143.733 23.581C143.336 23.581 143.017 23.4744 142.773 23.2611C142.529 23.0326 142.407 22.7356 142.407 22.3699V18.1653H133.655V22.3699C133.655 22.7356 133.533 23.0326 133.29 23.2611C133.046 23.4744 132.726 23.581 132.33 23.581ZM142.407 16.1316V13.9836C142.407 12.4297 142.034 11.2491 141.287 10.4417C140.556 9.63426 139.475 9.23056 138.043 9.23056C136.595 9.23056 135.499 9.63426 134.752 10.4417C134.021 11.2338 133.655 12.4145 133.655 13.9836V16.1316H142.407Z" fill="white"/>
<path d="M155.684 23.6039C153.993 23.6039 152.508 23.2611 151.228 22.5756C149.964 21.8901 148.989 20.9227 148.303 19.6735C147.618 18.4243 147.275 16.9923 147.275 15.3775C147.275 13.7627 147.618 12.3307 148.303 11.0815C148.989 9.8323 149.964 8.86494 151.228 8.17941C152.508 7.49388 153.993 7.15111 155.684 7.15111C157.375 7.15111 158.853 7.49388 160.117 8.17941C161.397 8.86494 162.38 9.8323 163.065 11.0815C163.751 12.3307 164.094 13.7627 164.094 15.3775C164.094 16.9923 163.751 18.4243 163.065 19.6735C162.38 20.9227 161.397 21.8901 160.117 22.5756C158.853 23.2611 157.375 23.6039 155.684 23.6039ZM155.684 21.5245C157.467 21.5245 158.876 20.976 159.912 19.8792C160.948 18.7823 161.466 17.2818 161.466 15.3775C161.466 13.458 160.932 11.9575 159.866 10.8758C158.815 9.77898 157.375 9.23056 155.547 9.23056C154.389 9.23056 153.384 9.48192 152.531 9.98464C151.678 10.4874 151.023 11.2034 150.566 12.1326C150.109 13.0619 149.88 14.1435 149.88 15.3775C149.88 16.6419 150.116 17.7388 150.588 18.6681C151.061 19.5821 151.731 20.2905 152.599 20.7932C153.468 21.2807 154.496 21.5245 155.684 21.5245Z" fill="white"/>
<path d="M116.475 23.3754C115.393 23.3754 114.548 23.0935 113.938 22.5299C113.344 21.951 113.047 21.1512 113.047 20.1305V10.5559C113.047 9.5657 113.337 8.78876 113.915 8.2251C114.494 7.66144 115.302 7.37961 116.338 7.37961H119.537C121.243 7.37961 122.713 7.70714 123.947 8.36221C125.196 9.00204 126.156 9.9237 126.826 11.1272C127.497 12.3307 127.832 13.7551 127.832 15.4003C127.832 17.0456 127.497 18.47 126.826 19.6735C126.171 20.8618 125.219 21.7758 123.97 22.4156C122.721 23.0555 121.243 23.3754 119.537 23.3754H116.475ZM119.308 21.3416C121.258 21.3416 122.721 20.8465 123.696 19.8563C124.686 18.8509 125.181 17.3655 125.181 15.4003C125.181 13.4352 124.686 11.9498 123.696 10.9444C122.705 9.9237 121.243 9.41336 119.308 9.41336H116.703C116.368 9.41336 116.109 9.52 115.926 9.73328C115.743 9.94655 115.652 10.236 115.652 10.6016V20.1534C115.652 20.519 115.743 20.8084 115.926 21.0217C116.109 21.235 116.368 21.3416 116.703 21.3416H119.308Z" fill="white"/>
</svg>
