<svg width="165" height="27" viewBox="0 0 165 27" fill="none" xmlns="http://www.w3.org/2000/svg">
<path d="M46.3066 27.0039C46.3066 14.2225 35.9405 3.86105 23.1533 3.86105C10.3661 3.86105 0 14.2225 0 27.0039H46.3066Z" fill="#CFD2DD"/>
<path d="M3.76914 13.6086C1.75683 16.7481 1.30966 18.4225 0.638889 20.7248C0.460018 17.5434 2.57666 13.0504 3.76914 11.3062L3.76914 13.6086Z" fill="#CFD2DD"/>
<path d="M42.7169 13.6086C44.7292 16.7481 45.1764 18.4225 45.8472 20.7248C46.026 17.5434 43.9094 13.0504 42.7169 11.3062V13.6086Z" fill="#CFD2DD"/>
<path d="M10.6792 6.55084C8.8844 7.63612 8.21134 8.24635 7.53828 8.7946V6.21226C8.97414 4.91044 10.2305 4.04256 10.6792 3.77135V6.55084Z" fill="#CFD2DD"/>
<path d="M35.8068 6.55084C37.2427 7.63612 37.7811 8.24635 38.3196 8.7946V6.21226C37.1709 4.91044 36.1658 4.04256 35.8068 3.77135V6.55084Z" fill="#CFD2DD"/>
<path d="M17.5893 3.40782C16.4115 3.60611 15.4299 4.00268 14.4484 4.39925V1.82153C15.5477 1.18702 17.0004 0.764004 17.5893 0.631813V3.40782Z" fill="#CFD2DD"/>
<path d="M28.2685 3.40782C29.682 3.60611 30.8598 4.00268 32.0377 4.39925V1.82153C30.7185 1.18702 28.9753 0.764004 28.2685 0.631813V3.40782Z" fill="#CFD2DD"/>
<path d="M25.1276 2.51553H21.3585V0.00390625H25.1276V2.51553Z" fill="#CFD2DD"/>
<path d="M68.44 23.8471C66.7311 23.8471 65.2455 23.5163 63.983 22.8546C62.736 22.1775 61.7738 21.2157 61.0964 19.9692C60.4344 18.7228 60.1034 17.2531 60.1034 15.5604C60.1034 13.8677 60.4344 12.3981 61.0964 11.1516C61.7738 9.88974 62.736 8.92026 63.983 8.24316C65.2455 7.56607 66.7234 7.22752 68.4169 7.22752C69.8025 7.22752 71.088 7.46604 72.2735 7.94309C73.4589 8.42013 74.3519 9.05876 74.9523 9.85896C75.1063 10.0744 75.1832 10.3052 75.1832 10.5514C75.1832 10.9054 75.0139 11.2055 74.6752 11.4517C74.475 11.5748 74.2672 11.6363 74.0517 11.6363C73.8515 11.6363 73.6514 11.5902 73.4512 11.4978C73.2665 11.4055 73.1048 11.2824 72.9663 11.1285C72.4582 10.5284 71.827 10.0821 71.0726 9.78971C70.3337 9.48194 69.4484 9.32806 68.4169 9.32806C66.6464 9.32806 65.2532 9.88204 64.2371 10.99C63.2364 12.0826 62.736 13.6061 62.736 15.5604C62.736 17.4994 63.2364 19.0151 64.2371 20.1077C65.2532 21.2003 66.6541 21.7466 68.44 21.7466C69.9026 21.7466 71.0572 21.4465 71.904 20.8464C72.7661 20.2462 73.1972 19.4306 73.1972 18.3996V17.7994C73.1972 17.4455 73.1202 17.1993 72.9663 17.0608C72.8277 16.9223 72.5583 16.853 72.158 16.853H68.9712C68.5863 16.853 68.2861 16.7684 68.0705 16.5991C67.8704 16.4145 67.7703 16.1606 67.7703 15.8374C67.7703 15.4989 67.8704 15.2373 68.0705 15.0526C68.2861 14.8679 68.5863 14.7756 68.9712 14.7756H73.2434C74.1209 14.7756 74.7675 14.968 75.1832 15.3527C75.6143 15.7374 75.8298 16.3298 75.8298 17.13V18.0303C75.8298 19.1536 75.5142 20.1539 74.883 21.031C74.2518 21.9082 73.3743 22.6007 72.2504 23.1085C71.1265 23.6009 69.8564 23.8471 68.44 23.8471Z" fill="#CFD2DD"/>
<path d="M86.7404 23.8471C85.0315 23.8471 83.5304 23.5009 82.2372 22.8084C80.9594 22.1159 79.9741 21.1388 79.2813 19.8769C78.5885 18.615 78.2421 17.1685 78.2421 15.5373C78.2421 13.9061 78.5885 12.4596 79.2813 11.1978C79.9741 9.9359 80.9594 8.95873 82.2372 8.26625C83.5304 7.57376 85.0315 7.22752 86.7404 7.22752C88.4493 7.22752 89.9426 7.57376 91.2204 8.26625C92.5137 8.95873 93.5067 9.9359 94.1995 11.1978C94.8923 12.4596 95.2387 13.9061 95.2387 15.5373C95.2387 17.1685 94.8923 18.615 94.1995 19.8769C93.5067 21.1388 92.5137 22.1159 91.2204 22.8084C89.9426 23.5009 88.4493 23.8471 86.7404 23.8471ZM86.7404 21.7466C88.5416 21.7466 89.9657 21.1926 91.0126 20.0846C92.0595 18.9767 92.5829 17.4609 92.5829 15.5373C92.5829 13.5984 92.0441 12.0826 90.9664 10.99C89.9041 9.88204 88.4493 9.32806 86.6018 9.32806C85.4318 9.32806 84.4156 9.58197 83.5535 10.0898C82.6914 10.5976 82.0294 11.3209 81.5675 12.2596C81.1056 13.1983 80.8747 14.2909 80.8747 15.5373C80.8747 16.8146 81.1133 17.9225 81.5906 18.8612C82.0678 19.7846 82.7452 20.5001 83.6228 21.0079C84.5003 21.5004 85.5395 21.7466 86.7404 21.7466Z" fill="#CFD2DD"/>
<path d="M101.432 23.6163C100.354 23.6163 99.5071 23.3316 98.8912 22.7622C98.2908 22.1775 97.9906 21.3696 97.9906 20.3385V8.45091C97.9906 8.0662 98.1061 7.76612 98.337 7.55068C98.568 7.33524 98.8836 7.22752 99.2838 7.22752C99.6841 7.22752 99.9997 7.34294 100.231 7.57376C100.477 7.7892 100.6 8.08158 100.6 8.45091V20.3616C100.6 20.731 100.693 21.0233 100.877 21.2388C101.077 21.4542 101.347 21.5619 101.686 21.5619H109.168C109.999 21.5619 110.415 21.9082 110.415 22.6007C110.415 22.9238 110.307 23.1777 110.091 23.3624C109.876 23.5317 109.568 23.6163 109.168 23.6163H101.432Z" fill="#CFD2DD"/>
<path d="M132.9 23.824C132.5 23.824 132.184 23.7163 131.953 23.5009C131.722 23.2855 131.607 22.9854 131.607 22.6007V14.1985C131.607 12.0134 132.23 10.3052 133.477 9.07414C134.724 7.84306 136.456 7.22752 138.673 7.22752C140.12 7.22752 141.375 7.51221 142.437 8.08158C143.5 8.63557 144.308 9.43578 144.862 10.4822C145.432 11.5286 145.717 12.7674 145.717 14.1985V22.6007C145.717 22.9854 145.601 23.2855 145.37 23.5009C145.139 23.7163 144.824 23.824 144.423 23.824C144.023 23.824 143.7 23.7163 143.453 23.5009C143.207 23.2701 143.084 22.97 143.084 22.6007V18.3534H134.239V22.6007C134.239 22.97 134.116 23.2701 133.87 23.5009C133.623 23.7163 133.3 23.824 132.9 23.824ZM143.084 16.2991V14.1293C143.084 12.5596 142.707 11.367 141.952 10.5514C141.213 9.73585 140.12 9.32806 138.673 9.32806C137.211 9.32806 136.102 9.73585 135.348 10.5514C134.609 11.3516 134.239 12.5443 134.239 14.1293V16.2991H143.084Z" fill="#CFD2DD"/>
<path d="M156.502 23.8471C154.793 23.8471 153.292 23.5009 151.999 22.8084C150.721 22.1159 149.735 21.1388 149.043 19.8769C148.35 18.615 148.003 17.1685 148.003 15.5373C148.003 13.9061 148.35 12.4596 149.043 11.1978C149.735 9.9359 150.721 8.95873 151.999 8.26625C153.292 7.57376 154.793 7.22752 156.502 7.22752C158.211 7.22752 159.704 7.57376 160.982 8.26625C162.275 8.95873 163.268 9.9359 163.961 11.1978C164.654 12.4596 165 13.9061 165 15.5373C165 17.1685 164.654 18.615 163.961 19.8769C163.268 21.1388 162.275 22.1159 160.982 22.8084C159.704 23.5009 158.211 23.8471 156.502 23.8471ZM156.502 21.7466C158.303 21.7466 159.727 21.1926 160.774 20.0846C161.821 18.9767 162.344 17.4609 162.344 15.5373C162.344 13.5984 161.805 12.0826 160.728 10.99C159.665 9.88204 158.211 9.32806 156.363 9.32806C155.193 9.32806 154.177 9.58197 153.315 10.0898C152.453 10.5976 151.791 11.3209 151.329 12.2596C150.867 13.1983 150.636 14.2909 150.636 15.5373C150.636 16.8146 150.875 17.9225 151.352 18.8612C151.829 19.7846 152.507 20.5001 153.384 21.0079C154.262 21.5004 155.301 21.7466 156.502 21.7466Z" fill="#CFD2DD"/>
<path d="M116.877 23.6163C115.784 23.6163 114.929 23.3316 114.313 22.7622C113.713 22.1775 113.413 21.3696 113.413 20.3385V10.6669C113.413 9.6666 113.705 8.88178 114.29 8.31241C114.875 7.74303 115.691 7.45834 116.738 7.45834H119.971C121.695 7.45834 123.181 7.7892 124.428 8.4509C125.691 9.09722 126.661 10.0282 127.338 11.2439C128.015 12.4596 128.354 13.8984 128.354 15.5604C128.354 17.2224 128.015 18.6612 127.338 19.8769C126.676 21.0772 125.714 22.0005 124.451 22.6468C123.189 23.2931 121.695 23.6163 119.971 23.6163H116.877ZM119.74 21.5619C121.711 21.5619 123.189 21.0618 124.174 20.0615C125.175 19.0459 125.675 17.5455 125.675 15.5604C125.675 13.5753 125.175 12.0749 124.174 11.0593C123.173 10.0282 121.695 9.51271 119.74 9.51271H117.108C116.769 9.51271 116.507 9.62043 116.322 9.83587C116.138 10.0513 116.045 10.3437 116.045 10.713V20.3616C116.045 20.7309 116.138 21.0233 116.322 21.2388C116.507 21.4542 116.769 21.5619 117.108 21.5619H119.74Z" fill="#CFD2DD"/>
</svg>
