<svg width="229" height="36" viewBox="0 0 229 36" fill="none" xmlns="http://www.w3.org/2000/svg">
<path fill-rule="evenodd" clip-rule="evenodd" d="M228.785 35.9801H0V34.4913H228.785V35.9801Z" fill="#7D7F86"/>
<path d="M66.4914 32.0099C66.498 31.7626 66.5013 31.5144 66.5013 31.2655C66.5013 16.3278 54.503 4.21836 39.7023 4.21836C24.9016 4.21836 12.9033 16.3278 12.9033 31.2655C12.9033 31.5144 12.9067 31.7626 12.9133 32.0099H66.4914Z" fill="#FFB800"/>
<path d="M17.1216 15.6328C14.8884 19.3548 14.3921 21.3399 13.6477 24.0695C13.4492 20.2978 15.7982 14.971 17.1216 12.9032L17.1216 15.6328Z" fill="#FFB800"/>
<path d="M62.531 15.6328C64.7643 19.3548 65.2606 21.3399 66.005 24.0695C66.2035 20.2978 63.8545 14.971 62.531 12.9032V15.6328Z" fill="#FFB800"/>
<path d="M25.0621 7.60906C23.077 8.933 22.3325 9.67742 21.5881 10.3462V7.19603C23.1762 5.60794 24.5658 4.54921 25.0621 4.21836V7.60906Z" fill="#FFB800"/>
<path d="M54.0943 7.60906C56.0794 8.933 56.8239 9.67742 57.5683 10.3462V7.19603C55.9802 5.60794 54.5906 4.54921 54.0943 4.21836V7.60906Z" fill="#FFB800"/>
<path d="M33.4988 3.97022C32.01 4.21836 30.7693 4.71464 29.5286 5.21092V1.98511C30.9181 1.19107 32.7544 0.661704 33.4988 0.496278V3.97022Z" fill="#FFB800"/>
<path d="M45.6576 3.97022C47.1464 4.21836 48.3871 4.71464 49.6278 5.21092V1.98511C48.2382 1.19107 46.402 0.661704 45.6576 0.496278V3.97022Z" fill="#FFB800"/>
<path d="M41.9355 3.22581H37.9653V0H41.9355V3.22581Z" fill="#FFB800"/>
<path d="M105.052 26.7891C103.289 26.7891 101.757 26.4476 100.455 25.7648C99.1683 25.066 98.1757 24.0734 97.477 22.7871C96.7941 21.5007 96.4526 19.9841 96.4526 18.2372C96.4526 16.4903 96.7941 14.9737 97.477 13.6873C98.1757 12.3851 99.1683 11.3846 100.455 10.6858C101.757 9.98709 103.281 9.63771 105.028 9.63771C106.458 9.63771 107.784 9.88386 109.006 10.3762C110.229 10.8685 111.15 11.5275 111.77 12.3533C111.929 12.5757 112.008 12.8139 112.008 13.068C112.008 13.4332 111.833 13.7429 111.484 13.997C111.277 14.1241 111.063 14.1876 110.841 14.1876C110.634 14.1876 110.428 14.1399 110.221 14.0447C110.031 13.9494 109.864 13.8223 109.721 13.6635C109.197 13.0442 108.546 12.5836 107.768 12.2819C107.005 11.9643 106.092 11.8054 105.028 11.8054C103.202 11.8054 101.765 12.3772 100.717 13.5206C99.6844 14.6481 99.1683 16.2203 99.1683 18.2372C99.1683 20.2382 99.6844 21.8025 100.717 22.93C101.765 24.0576 103.21 24.6213 105.052 24.6213C106.561 24.6213 107.752 24.3117 108.625 23.6923C109.515 23.0729 109.959 22.2313 109.959 21.1672V20.5479C109.959 20.1826 109.88 19.9285 109.721 19.7856C109.578 19.6427 109.3 19.5712 108.887 19.5712H105.6C105.203 19.5712 104.893 19.4839 104.671 19.3092C104.465 19.1186 104.361 18.8566 104.361 18.5231C104.361 18.1737 104.465 17.9037 104.671 17.7131C104.893 17.5226 105.203 17.4273 105.6 17.4273H110.007C110.912 17.4273 111.579 17.6258 112.008 18.0228C112.453 18.4198 112.675 19.0313 112.675 19.8571V20.7861C112.675 21.9454 112.349 22.9777 111.698 23.8829C111.047 24.7881 110.142 25.5027 108.983 26.0268C107.823 26.535 106.513 26.7891 105.052 26.7891Z" fill="#7D7F86"/>
<path d="M125.212 26.7891C123.449 26.7891 121.901 26.4318 120.567 25.7171C119.249 25.0025 118.232 23.994 117.518 22.6918C116.803 21.3896 116.446 19.8968 116.446 18.2134C116.446 16.53 116.803 15.0372 117.518 13.735C118.232 12.4327 119.249 11.4243 120.567 10.7097C121.901 9.99503 123.449 9.63771 125.212 9.63771C126.975 9.63771 128.515 9.99503 129.833 10.7097C131.167 11.4243 132.192 12.4327 132.906 13.735C133.621 15.0372 133.978 16.53 133.978 18.2134C133.978 19.8968 133.621 21.3896 132.906 22.6918C132.192 23.994 131.167 25.0025 129.833 25.7171C128.515 26.4318 126.975 26.7891 125.212 26.7891ZM125.212 24.6213C127.07 24.6213 128.539 24.0496 129.619 22.9062C130.699 21.7628 131.239 20.1985 131.239 18.2134C131.239 16.2124 130.683 14.6481 129.571 13.5206C128.476 12.3772 126.975 11.8054 125.069 11.8054C123.862 11.8054 122.814 12.0675 121.925 12.5916C121.035 13.1156 120.353 13.862 119.876 14.8308C119.4 15.7995 119.161 16.927 119.161 18.2134C119.161 19.5315 119.408 20.6749 119.9 21.6437C120.392 22.5965 121.091 23.335 121.996 23.859C122.901 24.3672 123.973 24.6213 125.212 24.6213Z" fill="#7D7F86"/>
<path d="M141.649 26.5509C140.537 26.5509 139.664 26.2571 139.029 25.6695C138.409 25.066 138.1 24.2322 138.1 23.1682V10.9002C138.1 10.5032 138.219 10.1935 138.457 9.97121C138.695 9.74887 139.021 9.63771 139.434 9.63771C139.846 9.63771 140.172 9.75681 140.41 9.99503C140.664 10.2174 140.791 10.5191 140.791 10.9002V23.192C140.791 23.5732 140.887 23.8749 141.077 24.0973C141.284 24.3196 141.562 24.4308 141.911 24.4308H149.629C150.487 24.4308 150.915 24.7881 150.915 25.5027C150.915 25.8362 150.804 26.0983 150.582 26.2888C150.36 26.4635 150.042 26.5509 149.629 26.5509H141.649Z" fill="#7D7F86"/>
<path d="M175.392 26.7652C174.979 26.7652 174.654 26.6541 174.415 26.4318C174.177 26.2094 174.058 25.8997 174.058 25.5027V16.8318C174.058 14.5767 174.701 12.8139 175.988 11.5434C177.274 10.2729 179.061 9.63771 181.347 9.63771C182.84 9.63771 184.135 9.9315 185.23 10.5191C186.326 11.0908 187.16 11.9166 187.732 12.9965C188.319 14.0764 188.613 15.3548 188.613 16.8318V25.5027C188.613 25.8997 188.494 26.2094 188.256 26.4318C188.017 26.6541 187.692 26.7652 187.279 26.7652C186.866 26.7652 186.533 26.6541 186.278 26.4318C186.024 26.1935 185.897 25.8839 185.897 25.5027V21.1196H176.774V25.5027C176.774 25.8839 176.647 26.1935 176.393 26.4318C176.138 26.6541 175.805 26.7652 175.392 26.7652ZM185.897 18.9995V16.7603C185.897 15.1404 185.508 13.9097 184.73 13.068C183.968 12.2263 182.84 11.8054 181.347 11.8054C179.839 11.8054 178.695 12.2263 177.917 13.068C177.155 13.8938 176.774 15.1246 176.774 16.7603V18.9995H185.897Z" fill="#7D7F86"/>
<path d="M201.021 26.7891C199.258 26.7891 197.71 26.4318 196.376 25.7171C195.057 25.0025 194.041 23.994 193.326 22.6918C192.612 21.3896 192.254 19.8968 192.254 18.2134C192.254 16.53 192.612 15.0372 193.326 13.735C194.041 12.4327 195.057 11.4243 196.376 10.7097C197.71 9.99503 199.258 9.63771 201.021 9.63771C202.783 9.63771 204.324 9.99503 205.642 10.7097C206.976 11.4243 208 12.4327 208.715 13.735C209.43 15.0372 209.787 16.53 209.787 18.2134C209.787 19.8968 209.43 21.3896 208.715 22.6918C208 23.994 206.976 25.0025 205.642 25.7171C204.324 26.4318 202.783 26.7891 201.021 26.7891ZM201.021 24.6213C202.879 24.6213 204.348 24.0496 205.428 22.9062C206.508 21.7628 207.047 20.1985 207.047 18.2134C207.047 16.2124 206.492 14.6481 205.38 13.5206C204.284 12.3772 202.783 11.8054 200.878 11.8054C199.671 11.8054 198.623 12.0675 197.733 12.5916C196.844 13.1156 196.161 13.862 195.685 14.8308C195.208 15.7995 194.97 16.927 194.97 18.2134C194.97 19.5315 195.216 20.6749 195.709 21.6437C196.201 22.5965 196.9 23.335 197.805 23.859C198.71 24.3672 199.782 24.6213 201.021 24.6213Z" fill="#7D7F86"/>
<path d="M158.223 26.5509C157.095 26.5509 156.214 26.2571 155.578 25.6695C154.959 25.066 154.649 24.2322 154.649 23.1682V13.1871C154.649 12.1548 154.951 11.3449 155.555 10.7573C156.158 10.1697 157 9.87592 158.08 9.87592H161.415C163.193 9.87592 164.726 10.2174 166.012 10.9002C167.314 11.5672 168.315 12.528 169.014 13.7826C169.712 15.0372 170.062 16.5221 170.062 18.2372C170.062 19.9523 169.712 21.4372 169.014 22.6918C168.331 23.9305 167.338 24.8834 166.036 25.5504C164.734 26.2174 163.193 26.5509 161.415 26.5509H158.223ZM161.176 24.4308C163.209 24.4308 164.734 23.9146 165.75 22.8824C166.782 21.8342 167.299 20.2858 167.299 18.2372C167.299 16.1886 166.782 14.6402 165.75 13.592C164.718 12.528 163.193 11.996 161.176 11.996H158.461C158.111 11.996 157.841 12.1072 157.651 12.3295C157.46 12.5519 157.365 12.8536 157.365 13.2347V23.192C157.365 23.5732 157.46 23.8749 157.651 24.0973C157.841 24.3196 158.111 24.4308 158.461 24.4308H161.176Z" fill="#FFB800"/>
</svg>
