<svg width="174" height="34" viewBox="0 0 174 34" fill="none" xmlns="http://www.w3.org/2000/svg">
<path fill-rule="evenodd" clip-rule="evenodd" d="M174 27.3643H0V26.2319H174V27.3643Z" fill="#7D7F86"/>
<path d="M50.5694 24.3448C50.5744 24.1567 50.5769 23.968 50.5769 23.7787C50.5769 12.4179 41.4517 3.20824 30.1952 3.20824C18.9387 3.20824 9.81348 12.4179 9.81348 23.7787C9.81348 23.968 9.81601 24.1567 9.82105 24.3448H50.5694Z" fill="#FFB800"/>
<path d="M13.0217 11.8893C11.3232 14.7201 10.9457 16.2299 10.3796 18.3058C10.2286 15.4373 12.0152 11.3861 13.0217 9.81343L13.0217 11.8893Z" fill="#FFB800"/>
<path d="M47.5574 11.8893C49.2559 14.7201 49.6333 16.2299 50.1995 18.3058C50.3504 15.4373 48.5639 11.3861 47.5574 9.81343V11.8893Z" fill="#FFB800"/>
<path d="M19.0607 5.787C17.5509 6.79391 16.9848 7.36007 16.4186 7.86873V5.47287C17.6264 4.26507 18.6833 3.45986 19.0607 3.20824V5.787Z" fill="#FFB800"/>
<path d="M41.1409 5.787C42.6507 6.79391 43.2168 7.36007 43.783 7.86873V5.47287C42.5752 4.26507 41.5183 3.45986 41.1409 3.20824V5.787Z" fill="#FFB800"/>
<path d="M25.4772 3.01952C24.3448 3.20824 23.4013 3.58568 22.4577 3.96311V1.50976C23.5145 0.905855 24.911 0.503253 25.4772 0.377439V3.01952Z" fill="#FFB800"/>
<path d="M34.7244 3.01952C35.8568 3.20824 36.8004 3.58568 37.7439 3.96311V1.50976C36.6871 0.905855 35.2906 0.503253 34.7244 0.377439V3.01952Z" fill="#FFB800"/>
<path d="M31.8936 2.45336H28.8741V0H31.8936V2.45336Z" fill="#FFB800"/>
<path d="M79.8962 20.3741C78.5556 20.3741 77.39 20.1145 76.3996 19.5951C75.4213 19.0637 74.6664 18.3088 74.135 17.3305C73.6156 16.3521 73.356 15.1987 73.356 13.8701C73.356 12.5415 73.6156 11.3881 74.135 10.4097C74.6664 9.41934 75.4213 8.65842 76.3996 8.12699C77.39 7.59555 78.5495 7.32983 79.8781 7.32983C80.9651 7.32983 81.9737 7.51704 82.9037 7.89146C83.8337 8.26588 84.5342 8.76712 85.0052 9.39518C85.126 9.56428 85.1864 9.74545 85.1864 9.9387C85.1864 10.2165 85.0536 10.452 84.7878 10.6453C84.6308 10.7419 84.4678 10.7902 84.2987 10.7902C84.1417 10.7902 83.9847 10.754 83.8276 10.6815C83.6827 10.609 83.5559 10.5124 83.4472 10.3916C83.0486 9.92058 82.5534 9.57031 81.9616 9.34083C81.3818 9.09927 80.6873 8.97849 79.8781 8.97849C78.4891 8.97849 77.3961 9.4133 76.5989 10.2829C75.8138 11.1405 75.4213 12.3362 75.4213 13.8701C75.4213 15.3919 75.8138 16.5816 76.5989 17.4392C77.3961 18.2967 78.4952 18.7255 79.8962 18.7255C81.0436 18.7255 81.9495 18.49 82.6138 18.0189C83.2902 17.5479 83.6284 16.9077 83.6284 16.0985V15.6275C83.6284 15.3497 83.568 15.1564 83.4472 15.0477C83.3385 14.939 83.1271 14.8847 82.8131 14.8847H80.3129C80.011 14.8847 79.7754 14.8182 79.6064 14.6854C79.4493 14.5404 79.3708 14.3411 79.3708 14.0875C79.3708 13.8218 79.4493 13.6165 79.6064 13.4715C79.7754 13.3266 80.011 13.2541 80.3129 13.2541H83.6646C84.353 13.2541 84.8603 13.4051 85.1864 13.7071C85.5246 14.009 85.6937 14.474 85.6937 15.1021V15.8086C85.6937 16.6903 85.4461 17.4754 84.9509 18.1639C84.4557 18.8523 83.7672 19.3958 82.8855 19.7944C82.0039 20.1809 81.0074 20.3741 79.8962 20.3741Z" fill="#7D7F86"/>
<path d="M95.2287 20.3741C93.888 20.3741 92.7104 20.1024 91.6958 19.5589C90.6934 19.0154 89.9204 18.2484 89.3768 17.258C88.8333 16.2676 88.5616 15.1323 88.5616 13.852C88.5616 12.5717 88.8333 11.4364 89.3768 10.446C89.9204 9.45557 90.6934 8.68862 91.6958 8.1451C92.7104 7.60159 93.888 7.32983 95.2287 7.32983C96.5693 7.32983 97.7409 7.60159 98.7434 8.1451C99.7579 8.68862 100.537 9.45557 101.08 10.446C101.624 11.4364 101.896 12.5717 101.896 13.852C101.896 15.1323 101.624 16.2676 101.08 17.258C100.537 18.2484 99.7579 19.0154 98.7434 19.5589C97.7409 20.1024 96.5693 20.3741 95.2287 20.3741ZM95.2287 18.7255C96.6418 18.7255 97.759 18.2907 98.5803 17.4211C99.4016 16.5514 99.8123 15.3617 99.8123 13.852C99.8123 12.3302 99.3896 11.1405 98.5441 10.2829C97.7107 9.4133 96.5693 8.97849 95.12 8.97849C94.202 8.97849 93.4049 9.17778 92.7285 9.57635C92.0521 9.97493 91.5328 10.5426 91.1704 11.2794C90.8081 12.0161 90.6269 12.8737 90.6269 13.852C90.6269 14.8545 90.8141 15.7241 91.1886 16.4608C91.563 17.1855 92.0944 17.7472 92.7829 18.1457C93.4713 18.5322 94.2866 18.7255 95.2287 18.7255Z" fill="#7D7F86"/>
<path d="M107.73 20.193C106.884 20.193 106.22 19.9695 105.737 19.5226C105.266 19.0637 105.03 18.4296 105.03 17.6203V8.29004C105.03 7.98809 105.121 7.75257 105.302 7.58347C105.483 7.41438 105.731 7.32983 106.045 7.32983C106.359 7.32983 106.606 7.42042 106.788 7.60159C106.981 7.77068 107.077 8.00017 107.077 8.29004V17.6385C107.077 17.9283 107.15 18.1578 107.295 18.3269C107.452 18.496 107.663 18.5806 107.929 18.5806H113.799C114.451 18.5806 114.777 18.8523 114.777 19.3958C114.777 19.6495 114.693 19.8487 114.524 19.9937C114.354 20.1265 114.113 20.193 113.799 20.193H107.73Z" fill="#7D7F86"/>
<path d="M133.393 20.356C133.079 20.356 132.831 20.2715 132.65 20.1024C132.469 19.9333 132.378 19.6978 132.378 19.3958V12.8012C132.378 11.0861 132.867 9.74545 133.846 8.7792C134.824 7.81296 136.183 7.32983 137.922 7.32983C139.057 7.32983 140.042 7.55328 140.875 8.00017C141.708 8.43498 142.342 9.06304 142.777 9.88434C143.224 10.7057 143.448 11.6779 143.448 12.8012V19.3958C143.448 19.6978 143.357 19.9333 143.176 20.1024C142.995 20.2715 142.747 20.356 142.433 20.356C142.119 20.356 141.865 20.2715 141.672 20.1024C141.479 19.9212 141.382 19.6857 141.382 19.3958V16.0623H134.443V19.3958C134.443 19.6857 134.347 19.9212 134.154 20.1024C133.96 20.2715 133.707 20.356 133.393 20.356ZM141.382 14.4499V12.7468C141.382 11.5149 141.086 10.5788 140.495 9.9387C139.915 9.29856 139.057 8.97849 137.922 8.97849C136.774 8.97849 135.905 9.29856 135.313 9.9387C134.733 10.5668 134.443 11.5028 134.443 12.7468V14.4499H141.382Z" fill="#7D7F86"/>
<path d="M152.884 20.3741C151.544 20.3741 150.366 20.1024 149.351 19.5589C148.349 19.0154 147.576 18.2484 147.032 17.258C146.489 16.2676 146.217 15.1323 146.217 13.852C146.217 12.5717 146.489 11.4364 147.032 10.446C147.576 9.45557 148.349 8.68862 149.351 8.1451C150.366 7.60159 151.544 7.32983 152.884 7.32983C154.225 7.32983 155.396 7.60159 156.399 8.1451C157.413 8.68862 158.193 9.45557 158.736 10.446C159.28 11.4364 159.551 12.5717 159.551 13.852C159.551 15.1323 159.28 16.2676 158.736 17.258C158.193 18.2484 157.413 19.0154 156.399 19.5589C155.396 20.1024 154.225 20.3741 152.884 20.3741ZM152.884 18.7255C154.297 18.7255 155.415 18.2907 156.236 17.4211C157.057 16.5514 157.468 15.3617 157.468 13.852C157.468 12.3302 157.045 11.1405 156.2 10.2829C155.366 9.4133 154.225 8.97849 152.775 8.97849C151.858 8.97849 151.06 9.17778 150.384 9.57635C149.708 9.97493 149.188 10.5426 148.826 11.2794C148.464 12.0161 148.282 12.8737 148.282 13.852C148.282 14.8545 148.47 15.7241 148.844 16.4608C149.219 17.1855 149.75 17.7472 150.438 18.1457C151.127 18.5322 151.942 18.7255 152.884 18.7255Z" fill="#7D7F86"/>
<path d="M120.334 20.193C119.477 20.193 118.806 19.9695 118.323 19.5226C117.852 19.0637 117.617 18.4296 117.617 17.6203V10.0293C117.617 9.24419 117.846 8.62821 118.305 8.18132C118.764 7.73443 119.404 7.51099 120.226 7.51099H122.762C124.115 7.51099 125.28 7.77066 126.259 8.29002C127.249 8.7973 128.01 9.52802 128.541 10.4822C129.073 11.4364 129.338 12.5657 129.338 13.8701C129.338 15.1745 129.073 16.3038 128.541 17.258C128.022 18.2001 127.267 18.9248 126.277 19.432C125.286 19.9393 124.115 20.193 122.762 20.193H120.334ZM122.581 18.5805C124.127 18.5805 125.286 18.188 126.059 17.4029C126.844 16.6058 127.237 15.4282 127.237 13.8701C127.237 12.312 126.844 11.1344 126.059 10.3373C125.274 9.52802 124.115 9.12341 122.581 9.12341H120.515C120.25 9.12341 120.044 9.20796 119.899 9.37705C119.755 9.54614 119.682 9.77562 119.682 10.0655V17.6384C119.682 17.9283 119.755 18.1578 119.899 18.3269C120.044 18.496 120.25 18.5805 120.515 18.5805H122.581Z" fill="#FFB800"/>
<path d="M142.47 33.4638C142.043 33.4638 141.67 33.3753 141.352 33.1981C141.034 33.021 140.789 32.7693 140.616 32.4432C140.443 32.1131 140.356 31.7306 140.356 31.2958C140.356 30.861 140.443 30.4785 140.616 30.1484C140.789 29.8183 141.034 29.5646 141.352 29.3875C141.674 29.2063 142.047 29.1157 142.47 29.1157C142.812 29.1157 143.13 29.1741 143.424 29.2909C143.722 29.4076 143.949 29.5687 144.106 29.774C144.142 29.8142 144.161 29.8625 144.161 29.9189C144.161 29.9833 144.132 30.0337 144.076 30.0699C144.04 30.094 144 30.1061 143.955 30.1061C143.919 30.1061 143.883 30.0981 143.847 30.082C143.81 30.0618 143.78 30.0377 143.756 30.0095C143.631 29.8525 143.458 29.7297 143.237 29.6411C143.015 29.5485 142.759 29.5022 142.47 29.5022C142.131 29.5022 141.838 29.5747 141.588 29.7196C141.338 29.8646 141.147 30.0719 141.014 30.3416C140.881 30.6114 140.815 30.9294 140.815 31.2958C140.815 31.8514 140.962 32.2882 141.256 32.6063C141.55 32.9203 141.954 33.0773 142.47 33.0773C142.739 33.0773 142.979 33.0351 143.188 32.9505C143.398 32.8619 143.561 32.7412 143.677 32.5882C143.798 32.4312 143.859 32.254 143.859 32.0567V31.8514C143.859 31.7427 143.836 31.6642 143.792 31.6159C143.752 31.5676 143.673 31.5434 143.557 31.5434H142.639C142.486 31.5434 142.409 31.483 142.409 31.3622C142.409 31.2334 142.486 31.169 142.639 31.169H143.635C143.865 31.169 144.036 31.2193 144.148 31.32C144.261 31.4206 144.318 31.5756 144.318 31.785V32.0145C144.318 32.2842 144.237 32.5298 144.076 32.7512C143.915 32.9727 143.694 33.1478 143.412 33.2766C143.13 33.4014 142.816 33.4638 142.47 33.4638Z" fill="#7D7F86"/>
<path d="M146.266 33.4034C146.021 33.4034 145.829 33.339 145.692 33.2102C145.556 33.0814 145.487 32.9002 145.487 32.6667V29.9008C145.487 29.6753 145.554 29.4982 145.686 29.3694C145.823 29.2405 146.013 29.1761 146.254 29.1761H148.126C148.283 29.1761 148.362 29.2405 148.362 29.3694C148.362 29.4257 148.342 29.47 148.301 29.5022C148.261 29.5344 148.203 29.5505 148.126 29.5505H146.26C146.164 29.5505 146.085 29.5827 146.025 29.6472C145.968 29.7116 145.94 29.7961 145.94 29.9008V31.0543H147.667C147.824 31.0543 147.903 31.1187 147.903 31.2475C147.903 31.3079 147.881 31.3542 147.836 31.3864C147.796 31.4186 147.74 31.4347 147.667 31.4347H145.94V32.6788C145.94 32.7834 145.968 32.868 146.025 32.9324C146.085 32.9968 146.164 33.029 146.26 33.029H148.259C148.416 33.029 148.495 33.0914 148.495 33.2162C148.495 33.2766 148.472 33.3229 148.428 33.3551C148.388 33.3873 148.332 33.4034 148.259 33.4034H146.266Z" fill="#7D7F86"/>
<path d="M149.647 29.931C149.647 29.7015 149.713 29.5183 149.846 29.3814C149.983 29.2446 150.18 29.1761 150.438 29.1761H151.567C152.662 29.1761 153.21 29.6311 153.21 30.5409C153.21 30.9798 153.077 31.3119 152.811 31.5374C152.546 31.7628 152.145 31.8756 151.61 31.8756L152.781 33.0894C152.817 33.1256 152.836 33.1719 152.836 33.2283C152.836 33.3008 152.805 33.3591 152.745 33.4034C152.697 33.4397 152.646 33.4578 152.594 33.4578C152.513 33.4578 152.437 33.4175 152.364 33.337L150.975 31.8756H150.16V33.2041C150.16 33.2847 150.136 33.3491 150.088 33.3974C150.043 33.4417 149.981 33.4638 149.901 33.4638C149.82 33.4638 149.758 33.4417 149.713 33.3974C149.669 33.3491 149.647 33.2847 149.647 33.2041V29.931ZM151.598 31.4589C151.968 31.4589 152.242 31.3904 152.419 31.2535C152.6 31.1126 152.691 30.8751 152.691 30.5409C152.691 30.2027 152.6 29.9612 152.419 29.8163C152.238 29.6673 151.964 29.5928 151.598 29.5928H150.468C150.376 29.5928 150.301 29.623 150.245 29.6834C150.188 29.7438 150.16 29.8263 150.16 29.931V31.4589H151.598Z" fill="#7D7F86"/>
<path d="M154.555 33.4638C154.487 33.4638 154.433 33.4437 154.392 33.4034C154.352 33.3591 154.332 33.2988 154.332 33.2223V30.4926C154.332 30.0659 154.453 29.7297 154.694 29.4841C154.936 29.2385 155.268 29.1157 155.691 29.1157C155.936 29.1157 156.162 29.1801 156.367 29.309C156.576 29.4338 156.733 29.6009 156.838 29.8102C156.943 29.5968 157.096 29.4277 157.297 29.3029C157.502 29.1781 157.732 29.1157 157.986 29.1157C158.408 29.1157 158.74 29.2385 158.982 29.4841C159.224 29.7257 159.344 30.0618 159.344 30.4926V33.2223C159.344 33.2988 159.322 33.3591 159.278 33.4034C159.238 33.4437 159.183 33.4638 159.115 33.4638C159.042 33.4638 158.986 33.4437 158.946 33.4034C158.91 33.3591 158.891 33.2988 158.891 33.2223V30.4926C158.891 30.1746 158.819 29.931 158.674 29.7619C158.533 29.5928 158.3 29.5083 157.974 29.5083C157.688 29.5083 157.464 29.5968 157.303 29.774C157.142 29.9471 157.062 30.1866 157.062 30.4926V33.2223C157.062 33.2988 157.041 33.3591 157.001 33.4034C156.961 33.4437 156.907 33.4638 156.838 33.4638C156.77 33.4638 156.715 33.4437 156.675 33.4034C156.639 33.3591 156.621 33.2988 156.621 33.2223V30.4926C156.621 30.1947 156.536 29.9572 156.367 29.78C156.198 29.5988 155.977 29.5083 155.703 29.5083C155.377 29.5083 155.141 29.5928 154.996 29.7619C154.855 29.931 154.785 30.1746 154.785 30.4926V33.2223C154.785 33.2988 154.765 33.3591 154.725 33.4034C154.684 33.4437 154.628 33.4638 154.555 33.4638Z" fill="#7D7F86"/>
<path d="M160.839 33.4638C160.77 33.4638 160.716 33.4437 160.676 33.4034C160.636 33.3591 160.615 33.2988 160.615 33.2223V30.861C160.615 30.3135 160.768 29.8867 161.074 29.5807C161.384 29.2707 161.813 29.1157 162.361 29.1157C162.904 29.1157 163.331 29.2707 163.641 29.5807C163.951 29.8907 164.106 30.3175 164.106 30.861V33.2223C164.106 33.2988 164.086 33.3591 164.046 33.4034C164.005 33.4437 163.949 33.4638 163.876 33.4638C163.808 33.4638 163.752 33.4437 163.707 33.4034C163.667 33.3591 163.647 33.2988 163.647 33.2223V31.8635H161.068V33.2223C161.068 33.2988 161.048 33.3591 161.008 33.4034C160.968 33.4437 160.911 33.4638 160.839 33.4638ZM163.647 31.4891V30.8429C163.647 30.4121 163.536 30.082 163.315 29.8525C163.093 29.619 162.775 29.5022 162.361 29.5022C161.942 29.5022 161.622 29.617 161.4 29.8464C161.179 30.0759 161.068 30.4081 161.068 30.8429V31.4891H163.647Z" fill="#7D7F86"/>
<path d="M165.589 33.4638C165.52 33.4638 165.466 33.4437 165.426 33.4034C165.385 33.3591 165.365 33.2988 165.365 33.2223V30.7583C165.365 30.4242 165.436 30.1343 165.577 29.8887C165.722 29.6391 165.927 29.4479 166.193 29.315C166.458 29.1822 166.77 29.1157 167.129 29.1157C167.487 29.1157 167.797 29.1822 168.059 29.315C168.324 29.4479 168.528 29.6391 168.669 29.8887C168.814 30.1343 168.886 30.4242 168.886 30.7583V33.2223C168.886 33.2988 168.866 33.3591 168.826 33.4034C168.789 33.4437 168.735 33.4638 168.663 33.4638C168.594 33.4638 168.538 33.4437 168.494 33.4034C168.453 33.3591 168.433 33.2988 168.433 33.2223V30.7402C168.433 30.3497 168.318 30.0457 168.089 29.8283C167.859 29.6109 167.539 29.5022 167.129 29.5022C166.726 29.5022 166.406 29.6129 166.169 29.8344C165.935 30.0558 165.818 30.3578 165.818 30.7402V33.2223C165.818 33.2988 165.798 33.3591 165.758 33.4034C165.718 33.4437 165.661 33.4638 165.589 33.4638Z" fill="#7D7F86"/>
<path d="M173.34 29.1157C173.408 29.1157 173.462 29.1379 173.503 29.1822C173.543 29.2224 173.563 29.2808 173.563 29.3573V30.1122C173.563 30.4544 173.499 30.7644 173.37 31.0422C173.245 31.3159 173.066 31.5374 172.832 31.7065C172.599 31.8756 172.331 31.9782 172.029 32.0145V33.2223C172.029 33.2988 172.009 33.3591 171.969 33.4034C171.928 33.4437 171.872 33.4638 171.8 33.4638C171.731 33.4638 171.677 33.4437 171.637 33.4034C171.596 33.3591 171.576 33.2988 171.576 33.2223V32.0145C171.262 31.9822 170.988 31.8836 170.755 31.7185C170.525 31.5535 170.348 31.3341 170.223 31.0603C170.099 30.7865 170.036 30.4705 170.036 30.1122V29.3573C170.036 29.2808 170.056 29.2224 170.097 29.1822C170.137 29.1379 170.191 29.1157 170.26 29.1157C170.332 29.1157 170.388 29.1379 170.429 29.1822C170.469 29.2224 170.489 29.2808 170.489 29.3573V30.1303C170.489 30.6054 170.604 30.9757 170.833 31.2415C171.067 31.5072 171.389 31.64 171.8 31.64C172.206 31.64 172.526 31.5072 172.76 31.2415C172.993 30.9717 173.11 30.6013 173.11 30.1303V29.3573C173.11 29.2808 173.13 29.2224 173.17 29.1822C173.215 29.1379 173.271 29.1157 173.34 29.1157Z" fill="#7D7F86"/>
</svg>
