<svg width="26" height="25" viewBox="0 0 26 25" fill="none" xmlns="http://www.w3.org/2000/svg">
<path d="M13.3643 0C6.46076 0 0.864258 5.5965 0.864258 12.5C0.864258 18.362 4.90026 23.281 10.3448 24.632V16.32H7.76726V12.5H10.3448V10.854C10.3448 6.5995 12.2703 4.6275 16.4473 4.6275C17.2393 4.6275 18.6058 4.783 19.1648 4.938V8.4005C18.8698 8.3695 18.3573 8.354 17.7208 8.354C15.6713 8.354 14.8793 9.1305 14.8793 11.149V12.5H18.9623L18.2608 16.32H14.8793V24.9085C21.0688 24.161 25.8648 18.891 25.8648 12.5C25.8643 5.5965 20.2678 0 13.3643 0Z" fill="#CFD2DD"/>
</svg>
