<svg width="24" height="24" viewBox="0 0 24 24" fill="none" xmlns="http://www.w3.org/2000/svg">
<path fill-rule="evenodd" clip-rule="evenodd" d="M0 12C0 5.376 5.37467 0 12 0C18.624 0 24 5.376 24 12C24 18.6253 18.624 24 12 24C5.37467 24 0 18.6253 0 12ZM14.624 19.3627C14.936 18.676 15.2067 17.8813 15.424 17.0013H8.57336C8.7907 17.8813 9.06134 18.676 9.37467 19.3627C10.2427 21.272 11.2533 21.9987 12 21.9987C12.7573 21.9987 13.764 21.2533 14.624 19.3627ZM7.55334 20.1907C7.12801 19.256 6.77869 18.18 6.52002 17.0013H3.33866C4.41733 18.8653 6.0787 20.348 8.07336 21.2C7.88536 20.8787 7.71068 20.54 7.55334 20.1907ZM20.6587 17.0013H17.4787C17.2187 18.18 16.8694 19.256 16.4454 20.1907C16.2867 20.5387 16.112 20.8773 15.9227 21.2C17.9174 20.348 19.58 18.8653 20.6587 17.0013ZM6 12C6 10.968 6.06135 9.96267 6.18001 9H2.4587C2.16003 9.948 2 10.956 2 12C2 13.0467 2.16002 14.0547 2.45736 15.0013H6.18001C6.06135 14.04 6 13.0333 6 12ZM16 12C16 10.952 15.9294 9.94533 15.8014 9H8.196C8.06934 9.94533 8 10.952 8 12C8 13.0493 8.06934 14.0573 8.196 15.0013H15.8014C15.9294 14.0573 16 13.0493 16 12ZM22 12C22 10.956 21.8387 9.948 21.54 9H17.8187C17.9374 9.96267 18 10.968 18 12C18 13.0333 17.9374 14.04 17.8187 15.0013H21.54C21.8387 14.0547 22 13.0467 22 12ZM7.55334 3.81067C7.71068 3.46267 7.88533 3.12402 8.07467 2.80135C6.08 3.65468 4.41734 5.13733 3.34001 7H6.52002C6.77869 5.82267 7.12801 4.74667 7.55334 3.81067ZM14.624 4.63867C13.756 2.72934 12.7453 2.00134 12 2.00134C11.2413 2.00134 10.2347 2.748 9.37467 4.63867C9.06134 5.32667 8.7907 6.12133 8.57336 7H15.424C15.2067 6.12133 14.936 5.32667 14.624 4.63867ZM15.9227 2.80135C16.112 3.12268 16.2854 3.46267 16.4454 3.81067C16.8694 4.74667 17.2187 5.82267 17.4787 7H20.6587C19.5787 5.13733 17.916 3.65468 15.9227 2.80135Z" fill="#7D7F86"/>
</svg>
