<svg width="44" height="44" viewBox="0 0 44 44" fill="none" xmlns="http://www.w3.org/2000/svg">
<g clip-path="url(#clip0_3301_134)">
<path d="M22 44C34.1503 44 44 34.1503 44 22C44 9.84974 34.1503 0 22 0C9.84974 0 0 9.84974 0 22C0 34.1503 9.84974 44 22 44Z" fill="#FAFAFA"/>
<path d="M30.6195 11.002C30.3038 11.0167 30.0065 11.1085 29.7422 11.2113H29.7385C29.4705 11.3177 28.1968 11.8537 26.2622 12.6649C24.3277 13.4799 21.8168 14.5371 19.3243 15.5869C14.3467 17.683 9.45344 19.746 9.45344 19.746L9.51217 19.724C9.51217 19.724 9.17446 19.8341 8.82205 20.0764C8.64218 20.1938 8.44396 20.3553 8.27143 20.6086C8.0989 20.8619 7.95941 21.251 8.0108 21.6512C8.09523 22.3303 8.53573 22.7377 8.85142 22.9616C9.17078 23.1892 9.47546 23.2957 9.47546 23.2957H9.48281L14.0714 24.8411C14.2769 25.5019 15.47 29.4223 15.7563 30.3254C15.9251 30.865 16.0903 31.2027 16.2959 31.4596C16.395 31.5918 16.5125 31.7019 16.652 31.79C16.707 31.8231 16.7658 31.8488 16.8245 31.8708C16.8428 31.8818 16.8612 31.8855 16.8832 31.8891L16.8355 31.8781C16.8502 31.8818 16.8612 31.8928 16.8722 31.8965C16.9089 31.9075 16.9346 31.9112 16.9823 31.9185C17.7092 32.1388 18.2928 31.6872 18.2928 31.6872L18.3259 31.6615L21.0349 29.1947L25.5758 32.6784L25.6786 32.7224C26.6256 33.1372 27.5837 32.906 28.0903 32.4985C28.6006 32.0874 28.7988 31.5624 28.7988 31.5624L28.8318 31.478L32.3411 13.5019C32.4403 13.0577 32.466 12.6429 32.3558 12.2391C32.2457 11.8353 31.963 11.4572 31.6217 11.2553C31.2766 11.0498 30.9352 10.9874 30.6195 11.002ZM30.5241 12.9292C30.5204 12.988 30.5314 12.9806 30.5057 13.0944V13.1054L27.0294 30.8943C27.0147 30.92 26.9891 30.9751 26.9193 31.0302C26.8459 31.0889 26.7872 31.1256 26.4825 31.0045L20.9285 26.7463L17.5733 29.8041L18.2781 25.3036C18.2781 25.3036 26.978 17.1948 27.3525 16.846C27.7269 16.4973 27.6021 16.4239 27.6021 16.4239C27.6278 15.9981 27.0368 16.2991 27.0368 16.2991L15.5948 23.3875L15.5911 23.3691L10.1068 21.5227V21.519C10.1032 21.519 10.0958 21.5153 10.0922 21.5153C10.0958 21.5153 10.1215 21.5043 10.1215 21.5043L10.1509 21.4896L10.1803 21.4786C10.1803 21.4786 15.0772 19.4156 20.0548 17.3196C22.5473 16.2697 25.0582 15.2125 26.9891 14.3976C28.9199 13.5863 30.3479 12.9916 30.4286 12.9586C30.5057 12.9292 30.469 12.9292 30.5241 12.9292Z" fill="#7D7F86"/>
</g>
<defs>
<clipPath id="clip0_3301_134">
<rect width="44" height="44" fill="white"/>
</clipPath>
</defs>
</svg>
