<svg width="26" height="25" viewBox="0 0 26 25" fill="none" xmlns="http://www.w3.org/2000/svg">
<path fill-rule="evenodd" clip-rule="evenodd" d="M2.62162 1.75736C0.864258 3.51472 0.864258 6.34312 0.864258 12V13C0.864258 18.6569 0.864258 21.4853 2.62162 23.2427C4.37898 25 7.20738 25 12.8643 25H13.8643C19.5211 25 22.3495 25 24.1069 23.2427C25.8643 21.4853 25.8643 18.6569 25.8643 13V12C25.8643 6.34312 25.8643 3.51472 24.1069 1.75736C22.3495 0 19.5211 0 13.8643 0H12.8643C7.20738 0 4.37898 0 2.62162 1.75736ZM5.08307 7.60422C5.21849 14.1042 8.46848 18.0105 14.1664 18.0105H14.4894V14.2917C16.5831 14.5001 18.1663 16.0313 18.8018 18.0105H21.7601C20.9476 15.0521 18.8121 13.4167 17.4788 12.7917C18.8121 12.0209 20.6871 10.1459 21.135 7.60422H18.4475C17.8642 9.66672 16.1352 11.5417 14.4894 11.7188V7.60422H11.8018V14.8126C10.1351 14.3959 8.03098 12.3751 7.93723 7.60422H5.08307Z" fill="#CFD2DD"/>
</svg>
