<svg width="76" height="77" viewBox="0 0 76 77" fill="none" xmlns="http://www.w3.org/2000/svg">
<path d="M14.1152 60.76L25.9874 55.8723C27.3599 55.3011 29.4188 54.1874 30.1778 53.0783C31.0133 51.9858 31.0152 50.3295 30.1778 48.8805C28.1227 45.9548 26.8892 43.358 26.0325 40.8193" stroke="#FFB800" stroke-width="2" stroke-miterlimit="79.8403" stroke-linecap="round" stroke-linejoin="round"/>
<path d="M24.1892 28.563L24.1947 27.0514C24.4038 23.1299 26.6386 19.1283 29.0143 16.9018C30.5066 15.5044 32.4734 14.048 33.6608 14.107C34.6271 14.1549 35.622 15.1847 36.6574 15.1847C37.7803 15.1847 38.8571 14.2276 39.9137 14.1549C41.4549 14.048 43.0467 15.2805 44.6836 17.1173C46.6033 19.2701 49.2342 23.5665 49.4525 26.9325L49.5198 28.4349" stroke="#FFB800" stroke-width="2" stroke-miterlimit="79.8403" stroke-linecap="round" stroke-linejoin="round"/>
<path d="M47.7318 40.5236C46.922 42.9113 45.7632 45.1212 43.5441 48.5056C42.6294 50.2356 42.7823 52.0779 43.4805 53.0783C44.0775 54.1294 46.2975 55.3011 47.6691 55.8723L59.5413 60.76" stroke="#FFB800" stroke-width="2" stroke-miterlimit="79.8403" stroke-linecap="round" stroke-linejoin="round"/>
<path fill-rule="evenodd" clip-rule="evenodd" d="M37.3097 70.7004C19.3854 70.7004 4.83813 56.1532 4.83813 38.2289C4.83813 20.3046 19.3854 5.75735 37.3097 5.75735C55.234 5.75735 69.7812 20.3046 69.7812 38.2289C69.7812 56.1532 55.234 70.7004 37.3097 70.7004Z" stroke="#FFB800" stroke-width="2" stroke-miterlimit="79.8403"/>
<path fill-rule="evenodd" clip-rule="evenodd" d="M50.4364 32.011C50.1674 36.4621 49.4166 39.1787 47.7235 40.3873C46.0921 41.1463 42.3503 41.1758 40.3495 40.3016C38.9825 39.6853 37.9609 38.2704 37.2405 35.4654H35.9969C35.2765 38.2704 34.255 39.6853 32.8879 40.3016C30.8871 41.1758 27.1453 41.1463 25.5139 40.3873C23.8208 39.1787 23.07 36.4621 22.801 32.011H50.4364Z" stroke="#FFB800" stroke-width="2" stroke-miterlimit="79.8403" stroke-linecap="round" stroke-linejoin="round"/>
<path d="M30.3142 49.1052C33.6599 54.0962 40.2325 53.911 43.3866 48.7966" stroke="#FFB800" stroke-width="2" stroke-miterlimit="79.8403" stroke-linecap="round" stroke-linejoin="round"/>
<path d="M58.036 28.5566C44.5776 29.4179 30.5351 29.4271 15.8921 28.5566" stroke="#FFB800" stroke-width="2" stroke-miterlimit="79.8403" stroke-linecap="round" stroke-linejoin="round"/>
</svg>
