<svg width="76" height="77" viewBox="0 0 76 77" fill="none" xmlns="http://www.w3.org/2000/svg">
<path fill-rule="evenodd" clip-rule="evenodd" d="M38.0005 70.7004C20.0762 70.7004 5.52893 56.1532 5.52893 38.2289C5.52893 20.3046 20.0762 5.75735 38.0005 5.75735C55.9248 5.75735 70.472 20.3046 70.472 38.2289C70.472 56.1532 55.9248 70.7004 38.0005 70.7004Z" stroke="#FFB800" stroke-width="2" stroke-miterlimit="79.8403"/>
<path d="M28.3281 51.0793L47.6729 26.7603" stroke="#FFB800" stroke-width="2" stroke-miterlimit="79.8403" stroke-linecap="round" stroke-linejoin="round"/>
<path fill-rule="evenodd" clip-rule="evenodd" d="M46.982 53.3593C43.5497 53.3593 40.764 50.5737 40.764 47.1414C40.764 43.709 43.5497 40.9234 46.982 40.9234C50.4143 40.9234 53.2 43.709 53.2 47.1414C53.2 50.5737 50.4143 53.3593 46.982 53.3593Z" stroke="#FFB800" stroke-width="2" stroke-miterlimit="79.8403"/>
<path fill-rule="evenodd" clip-rule="evenodd" d="M29.019 24.4803C32.4513 24.4803 35.2369 27.2659 35.2369 30.6982C35.2369 34.1306 32.4513 36.9162 29.019 36.9162C25.5867 36.9162 22.801 34.1306 22.801 30.6982C22.801 27.2659 25.5867 24.4803 29.019 24.4803Z" stroke="#FFB800" stroke-width="2" stroke-miterlimit="79.8403"/>
</svg>
