<svg width="76" height="77" viewBox="0 0 76 77" fill="none" xmlns="http://www.w3.org/2000/svg">
<path d="M38.0005 8.52088H60.7997C62.8723 8.52088 64.2541 9.90264 64.2541 11.9753V39.6107C64.2541 55.501 53.1999 63.7916 38.0005 69.5214" stroke="#FFB800" stroke-width="2" stroke-miterlimit="79.8403" stroke-linecap="round" stroke-linejoin="round"/>
<path fill-rule="evenodd" clip-rule="evenodd" d="M45.6002 47.9013C46.8917 47.9013 47.6729 47.1828 47.6729 45.8286V34.7745C47.6729 33.4682 46.9608 32.7018 45.6002 32.7018H30.4008C29.0402 32.7018 28.3281 33.4682 28.3281 34.7745V45.8286C28.3281 47.1828 29.1093 47.9013 30.4008 47.9013H45.6002Z" stroke="#FFB800" stroke-width="2" stroke-miterlimit="79.8403" stroke-linecap="round" stroke-linejoin="round"/>
<path d="M44.2184 32.7018V26.7833C44.2184 22.8369 41.7312 20.8638 38.0004 20.9605C34.2697 20.8638 31.7825 22.8369 31.7825 26.7833V32.7018" stroke="#FFB800" stroke-width="2" stroke-miterlimit="79.8403" stroke-linecap="round" stroke-linejoin="round"/>
<path d="M38.0004 8.52088H15.2012C13.1286 8.52088 11.7468 9.90264 11.7468 11.9753V39.6107C11.7468 55.501 22.801 63.7916 38.0004 69.5214" stroke="#FFB800" stroke-width="2" stroke-miterlimit="79.8403" stroke-linecap="round" stroke-linejoin="round"/>
</svg>
