<svg width="76" height="77" viewBox="0 0 76 77" fill="none" xmlns="http://www.w3.org/2000/svg">
<path d="M47.6709 55.5082L46.9638 56.2154L47.6709 56.9225L48.378 56.2154L47.6709 55.5082ZM52.8896 7.18954L53.5996 6.4853V6.4853L52.8896 7.18954ZM62.8494 17.2303L62.1395 17.9345L62.8494 17.2303ZM50.7667 7.47722C50.7667 6.92493 50.319 6.47722 49.7667 6.47722C49.2144 6.47722 48.7667 6.92493 48.7667 7.47722H50.7667ZM62.548 21.3624C63.1003 21.3624 63.548 20.9146 63.548 20.3624C63.548 19.8101 63.1003 19.3624 62.548 19.3624V21.3624ZM43.5094 52.7609L46.9638 56.2154L48.378 54.8011L44.9236 51.3467L43.5094 52.7609ZM48.378 56.2154L53.2142 51.3792L51.8 49.965L46.9638 54.8011L48.378 56.2154ZM23.49 21.2732H34.5441V19.2732H23.49V21.2732ZM23.49 26.8002H55.9615V24.8002H23.49V26.8002ZM23.49 35.0908H55.9615V33.0908H23.49V35.0908ZM23.49 30.9455H55.9615V28.9455H23.49V30.9455ZM23.49 39.2361H42.1438V37.2361H23.49V39.2361ZM57.7251 53.4356C57.7251 58.6068 53.533 62.7989 48.3618 62.7989V64.7989C54.6376 64.7989 59.7251 59.7113 59.7251 53.4356H57.7251ZM48.3618 62.7989C43.1906 62.7989 38.9985 58.6068 38.9985 53.4356H36.9985C36.9985 59.7113 42.086 64.7989 48.3618 64.7989V62.7989ZM38.9985 53.4356C38.9985 48.2644 43.1906 44.0723 48.3618 44.0723V42.0723C42.086 42.0723 36.9985 47.1598 36.9985 53.4356H38.9985ZM48.3618 44.0723C53.533 44.0723 57.7251 48.2644 57.7251 53.4356H59.7251C59.7251 47.1598 54.6376 42.0723 48.3618 42.0723V44.0723ZM59.4159 68.3259H17.9629V70.3259H59.4159V68.3259ZM14.1267 64.4897V10.5954H12.1267V64.4897H14.1267ZM17.9629 6.7592H49.4561V4.7592H17.9629V6.7592ZM52.1796 7.89379L62.1395 17.9345L63.5594 16.526L53.5996 6.4853L52.1796 7.89379ZM63.2521 20.6361V64.4897H65.2521V20.6361H63.2521ZM49.4561 6.7592C50.4789 6.7592 51.4593 7.16764 52.1796 7.89379L53.5996 6.4853C52.5037 5.38058 51.0121 4.7592 49.4561 4.7592V6.7592ZM17.9629 68.3259C15.8442 68.3259 14.1267 66.6084 14.1267 64.4897H12.1267C12.1267 67.713 14.7397 70.3259 17.9629 70.3259V68.3259ZM59.4159 70.3259C62.6392 70.3259 65.2521 67.713 65.2521 64.4897H63.2521C63.2521 66.6084 61.5346 68.3259 59.4159 68.3259V70.3259ZM62.1395 17.9345C62.8522 18.653 63.2521 19.6241 63.2521 20.6361H65.2521C65.2521 19.0964 64.6437 17.6191 63.5594 16.526L62.1395 17.9345ZM14.1267 10.5954C14.1267 8.47672 15.8442 6.7592 17.9629 6.7592V4.7592C14.7397 4.7592 12.1267 7.37215 12.1267 10.5954H14.1267ZM48.7667 7.47722V17.5988H50.7667V7.47722H48.7667ZM52.5302 21.3624H62.548V19.3624H52.5302V21.3624ZM48.7667 17.5988C48.7667 19.6774 50.4517 21.3624 52.5302 21.3624V19.3624C51.5562 19.3624 50.7667 18.5728 50.7667 17.5988H48.7667Z" fill="#FFB800"/>
</svg>
